<?xml version="1.0" standalone="no"?>
<!DOCTYPE svg PUBLIC "-//W3C//DTD SVG 20010904//EN"
 "http://www.w3.org/TR/2001/REC-SVG-20010904/DTD/svg10.dtd">
<svg version="1.0" xmlns="http://www.w3.org/2000/svg"
 width="225.000000pt" height="225.000000pt" viewBox="0 0 225.000000 225.000000"
 preserveAspectRatio="xMidYMid meet">

<g transform="translate(0.000000,225.000000) scale(0.100000,-0.100000)"
fill="#000000" stroke="none">
<path d="M1025 2166 c-108 -27 -217 -110 -269 -206 -47 -86 -56 -157 -56 -460
0 -151 4 -301 10 -333 22 -137 115 -258 243 -318 67 -31 79 -34 172 -34 93 0
105 3 172 34 128 60 221 181 243 318 16 95 12 596 -5 676 -49 233 -281 380
-510 323z m222 -155 c57 -28 111 -84 137 -140 20 -44 21 -61 21 -376 0 -314
-1 -332 -21 -375 -31 -68 -68 -106 -136 -139 -85 -43 -161 -43 -246 0 -68 33
-105 71 -136 139 -20 42 -21 65 -24 343 -2 193 1 316 8 351 20 96 90 176 187
212 53 20 157 13 210 -15z"/>
<path d="M357 1473 c-11 -10 -8 -269 3 -347 25 -172 99 -318 224 -441 120
-118 235 -180 396 -212 l80 -16 0 -193 0 -194 65 0 65 0 0 194 0 193 80 16
c161 32 276 94 396 212 173 171 239 357 232 660 l-3 130 -66 3 -67 3 -4 -183
c-4 -172 -6 -188 -34 -268 -38 -108 -86 -181 -174 -263 -76 -72 -176 -127
-280 -153 -89 -22 -261 -15 -347 16 -185 65 -331 212 -397 400 -28 80 -30 96
-34 268 l-4 182 -62 0 c-35 0 -66 -3 -69 -7z"/>
</g>
</svg>
