<?xml version="1.0" standalone="no"?>
<!DOCTYPE svg PUBLIC "-//W3C//DTD SVG 20010904//EN"
 "http://www.w3.org/TR/2001/REC-SVG-20010904/DTD/svg10.dtd">
<svg version="1.0" xmlns="http://www.w3.org/2000/svg"
 width="980.000000pt" height="980.000000pt" viewBox="0 0 980.000000 980.000000"
 preserveAspectRatio="xMidYMid meet">

<g transform="translate(0.000000,980.000000) scale(0.100000,-0.100000)"
fill="#000000" stroke="none">
<path d="M2082 8534 c-53 -26 -186 -160 -322 -324 -539 -648 -864 -1450 -931
-2295 -15 -184 -6 -631 15 -800 98 -775 395 -1477 882 -2083 153 -191 299
-340 359 -368 179 -84 382 58 362 251 -7 72 -27 106 -116 203 -152 167 -245
280 -336 407 -351 493 -560 1030 -642 1650 -21 165 -25 647 -5 805 57 456 168
833 358 1213 172 344 333 571 621 881 86 91 113 139 120 211 20 196 -188 337
-365 249z"/>
<path d="M7511 8543 c-98 -35 -169 -151 -158 -258 8 -76 36 -123 139 -230 188
-196 385 -464 521 -706 230 -412 365 -823 433 -1324 25 -185 26 -666 1 -850
-109 -792 -418 -1454 -945 -2019 -116 -125 -141 -166 -149 -241 -20 -193 183
-335 362 -251 59 27 205 176 354 361 518 643 819 1383 897 2205 18 186 15 651
-6 820 -109 899 -479 1699 -1083 2344 -128 137 -176 166 -267 165 -30 0 -75
-8 -99 -16z"/>
<path d="M2972 7679 c-86 -25 -367 -352 -511 -594 -176 -297 -295 -601 -360
-922 -68 -330 -70 -783 -6 -1100 86 -425 258 -821 495 -1141 147 -198 308
-370 374 -397 49 -21 152 -19 201 4 121 55 178 178 141 305 -14 46 -32 73
-102 150 -340 375 -532 759 -615 1231 -27 153 -36 456 -20 616 55 532 285
1023 659 1409 104 107 118 230 39 346 -45 67 -117 104 -201 103 -33 0 -76 -5
-94 -10z"/>
<path d="M6622 7664 c-78 -39 -130 -116 -139 -208 -7 -75 23 -146 99 -226 203
-216 343 -423 454 -670 137 -307 204 -621 204 -960 0 -260 -36 -487 -115 -730
-107 -326 -264 -591 -514 -870 -80 -89 -104 -123 -116 -163 -19 -63 -19 -91
-1 -150 32 -108 129 -177 245 -177 91 1 131 22 227 121 429 447 695 1013 769
1636 20 167 20 499 0 666 -66 558 -289 1073 -653 1507 -112 134 -209 223 -258
238 -69 20 -144 15 -202 -14z"/>
<path d="M4695 6956 c-490 -81 -897 -407 -1071 -858 -127 -328 -125 -677 7
-1014 141 -361 466 -664 844 -787 154 -50 236 -62 430 -62 192 0 234 6 400 57
265 80 521 259 690 483 112 147 205 354 247 544 31 139 31 424 0 563 -60 271
-178 486 -376 684 -61 61 -146 134 -189 163 -155 104 -333 179 -512 216 -107
23 -365 29 -470 11z"/>
<path d="M4603 3745 c-537 -68 -1032 -309 -1416 -688 -209 -206 -347 -397
-477 -662 -125 -253 -203 -514 -234 -784 -16 -140 -11 -173 37 -228 60 -68
-131 -63 2387 -63 2518 0 2327 -5 2387 63 48 55 53 88 37 228 -52 444 -242
895 -527 1249 -34 41 -115 129 -181 195 -359 357 -807 586 -1321 675 -159 28
-528 36 -692 15z"/>
</g>
</svg>
